<?xml version="1.0" encoding="UTF-8"?>
<!DOCTYPE svg PUBLIC "-//W3C//DTD SVG 1.1//EN" "http://www.w3.org/Graphics/SVG/1.1/DTD/svg11.dtd">
<!-- Creator: CorelDRAW -->
<svg xmlns="http://www.w3.org/2000/svg" xml:space="preserve" width="297mm" height="210mm" style="shape-rendering:geometricPrecision; text-rendering:geometricPrecision; image-rendering:optimizeQuality; fill-rule:evenodd; clip-rule:evenodd"
viewBox="0 0 297 210"
 xmlns:xlink="http://www.w3.org/1999/xlink">
 <defs>
  <style type="text/css">
   <![CDATA[
    .str0 {stroke:#947A77;stroke-width:0.25;stroke-linejoin:round}
    .fil0 {fill:#5D5D5D;fill-rule:nonzero}
    .fil1 {fill:white;fill-rule:nonzero}
   ]]>
  </style>
 </defs>
 <g id="Layer_x0020_1">
  <metadata id="CorelCorpID_0Corel-Layer"/>
  <g id="_351401456">
   <path id="_351403688" class="fil0" d="M10.5073 140.909l36.1372 20.8225c3.9393,2.5382 10.2938,2.5327 14.229,-0.0124l36.101 -20.8852c4.1682,-2.1427 7.3407,-7.6483 7.104,-12.3288l-0.0363 -41.7068c0.2286,-4.681 -2.9535,-10.1815 -7.1254,-12.3165l-36.1373 -20.822c-3.9396,-2.5386 -10.2941,-2.5331 -14.2289,0.0123l-36.101 20.8849c-4.1681,2.1422 -7.3406,7.6483 -7.1036,12.3288l0.0363 41.7069c-0.2289,4.6808 2.9532,10.181 7.125,12.3163z"/>
   <g>
    <path id="_351403328" class="fil1" d="M12.7413 137.032l36.1372 20.8225c2.701,1.7394 7.0568,1.7356 9.7543,-0.0085l36.101 -20.8852c2.8574,-1.4688 5.0317,-5.2431 4.8701,-8.4515l-0.0363 -41.7068c0.1561,-3.2091 -2.0248,-6.9796 -4.8847,-8.4431l-36.1373 -20.822c-2.7005,-1.7402 -7.0564,-1.7364 -9.7543,0.0085l-36.101 20.8848c-2.857,1.4685 -5.0321,5.2427 -4.8696,8.4515l0.0362 41.7069c-0.1569,3.2086 2.0248,6.9791 4.8844,8.4429z"/>
    <path id="_351402272" class="fil0" d="M87.3456 83.1695l-32.7096 -18.8469c-0.5325,-0.3432 -1.3914,-0.3425 -1.923,0.0017l-32.677 18.9037c-0.8023,0.4643 -1.8288,0.1902 -2.2931,-0.612 -0.4639,-0.8022 -0.1898,-1.8292 0.6124,-2.2931l32.6767 -18.9037c1.4602,-0.9442 3.8179,-0.9462 5.2793,-0.0046l32.7098 18.8469c0.803,0.4625 1.0789,1.489 0.6161,2.292 -0.4626,0.803 -1.4887,1.0789 -2.2916,0.616z"/>
    <path id="_351402176" class="fil0" d="M15.655 90.8313l0.0328 37.751c-0.0311,0.6325 0.3992,1.3757 0.9634,1.6645l32.7092 18.8469c0.8034,0.4629 1.0788,1.4886 0.6163,2.292 -0.4625,0.8034 -1.4889,1.0788 -2.2915,0.616l-32.71 -18.8469c-1.5477,-0.7924 -2.7285,-2.8332 -2.6436,-4.5696l-0.0328 -37.751c-0.0008,-0.9268 0.7499,-1.6787 1.6766,-1.6795 0.9268,-0.0008 1.6788,0.7498 1.6796,1.6766z"/>
    <path id="_351402296" class="fil0" d="M58.1353 149.086l32.6772 -18.9037c0.5632,-0.2897 0.9918,-1.0337 0.96,-1.6662l-0.0328 -37.751c-0.0008,-0.9267 0.7498,-1.6787 1.6766,-1.6795 0.9269,-0.0008 1.6788,0.7499 1.6796,1.6766l0.0328 37.751c0.0876,1.7363 -1.0892,3.7791 -2.636,4.5742l-32.6763 18.9037c-0.8026,0.4643 -1.8287,0.1906 -2.293,-0.612 -0.4643,-0.8026 -0.1897,-1.8288 0.6119,-2.2931z"/>
    <path id="_351401432" class="fil0" d="M58.0295 107.137l30.1186 -17.4244c0.8022,-0.4638 1.0764,-1.4904 0.6124,-2.2926 -0.4643,-0.8022 -1.4907,-1.0763 -2.2931,-0.6124l-30.1189 17.4243c-1.4598,0.9439 -3.8175,0.946 -5.2792,0.0046l-30.1489 -17.3719c-0.803,-0.4625 -1.8291,-0.1866 -2.2916,0.6164 -0.4629,0.803 -0.187,1.8291 0.616,2.2915l30.1492 17.372c1.5478,0.792 2.7286,2.8328 2.6436,4.5696l0.0303 34.7955c0.0008,0.9271 0.7528,1.6778 1.6792,1.677 0.9272,-0.0008 1.6777,-0.7528 1.6769,-1.6799l-0.0302 -34.7955c-0.0879,-1.7367 1.089,-3.7795 2.6357,-4.5742z"/>
   </g>
  </g>
  <g id="_351404144">
   <path id="_351401312" class="fil0" d="M184.913 105.623c4.2472,-4.674 3.9013,-11.9058 -0.7728,-16.1529 -1.7252,-1.7657 -5.2257,-3.1189 -7.69,-2.9726l-11.5794 0 0 46.1228 11.5794 0c8.1877,0 14.8252,-6.6378 14.8252,-14.8252 0.2377,-4.399 -2.6146,-9.8561 -6.3624,-12.1721z"/>
   <polygon id="_351401240" class="fil0" points="261.785,86.497 242.971,132.62 249.88,132.62 251.224,129.325 272.45,129.325 273.794,132.62 280.599,132.62 "/>
   <polygon id="_351396392" class="fil0" points="142.499,86.497 123.685,132.62 130.595,132.62 131.939,129.325 153.165,129.325 154.509,132.62 161.313,132.62 "/>
   <polygon id="_351394256" class="fil0" points="129.535,109.559 120.128,109.559 120.128,93.0863 136.254,93.0863 138.942,86.497 113.73,86.497 113.73,132.62 120.128,132.62 120.128,116.147 126.847,116.147 "/>
   <path id="_351403640" class="fil1 str0" d="M171.269 102.97l0 -9.8832 5.1817 0c2.729,0 4.9415,2.2126 4.9415,4.942 0,2.7286 -2.2125,4.9412 -4.9415,4.9412l-5.1817 0z"/>
   <path id="_351404072" class="fil1 str0" d="M171.269 109.367l5.1817 0c4.6013,0 8.3316,3.7304 8.3316,8.332 0,4.6017 -3.7303,8.3312 -8.3316,8.3312l-5.1817 0 0 -16.6632z"/>
   <polygon id="_351404000" class="fil1 str0" points="150.477,122.737 134.627,122.737 142.552,103.307 "/>
   <polygon id="_351403976" class="fil0" points="231.146,86.497 215.883,117.947 200.671,86.497 192.125,132.62 198.632,132.62 203.407,106.847 215.873,132.62 228.381,106.849 233.117,132.62 239.621,132.62 "/>
   <polygon id="_351403760" class="fil1 str0" points="261.837,103.307 269.762,122.737 253.912,122.737 "/>
   <polygon id="_351403520" class="fil0" points="290.555,86.497 265.343,86.497 268.03,93.0863 284.157,93.0863 284.157,132.62 290.555,132.62 "/>
  </g>
 </g>
</svg>
